<?xml version="1.0" encoding="utf-8"?>
<!-- Generator: Adobe Illustrator 21.1.0, SVG Export Plug-In . SVG Version: 6.00 Build 0)  -->
<svg version="1.1" id="Livello_1" xmlns="http://www.w3.org/2000/svg" xmlns:xlink="http://www.w3.org/1999/xlink" x="0px" y="0px"
	 viewBox="0 0 92.7 136.6" style="enable-background:new 0 0 92.7 136.6;" xml:space="preserve">
<style type="text/css">
	.st0{fill:#FFFFFF;stroke:#000000;stroke-width:6;stroke-miterlimit:10;}
</style>
<title>svgRisorsa 1</title>
<path d="M-31.3,18.9"/>
<path d="M-8.4,4"/>
<path d="M80.7,71.6c-1.1,0-2.3,0.2-3.3,0.7c-1-3.7-4.4-6.4-8.3-6.4c-1.1,0-2.3,0.2-3.3,0.7c-1.1-3.5-4.4-5.9-8.1-5.9
	c-1,0-1.9,0.2-2.8,0.5V49.7c0-4.7-3.8-8.6-8.5-8.6s-8.7,3.9-8.7,8.6l0,0v34h-1v5.5h1V105h5.5V49.7c0-1.7,1.3-3,3-3s3,1.3,3,3v33h5.6
	V69.2c-0.1-1.6,1.1-2.9,2.7-3h0.1c1.7,0,3,1.3,3,3v4.7c0,0.2,0,0.4,0,0.6l0,0v8.2h5.5v-8.5c0.1-1.5,1.4-2.7,2.9-2.7c1.7,0,3,1.3,3,3
	v5.7l0,0v7.7h5.7v-7.7c0-1.7,1.3-3,3-3s3,1.3,3,3v41.3c-3.3,1.7-12,5.6-21.9,5.6h-0.3c-5-0.1-9.9-1.1-14.5-2.9
	c-1.8-0.7-3.5-1.6-5.2-2.6L33.7,105V92.2c0-1.7,1.3-3,3-3v-5.6c-4.7,0-8.5,3.8-8.5,8.6v14.1l9.3,19l0.6,0.4c2.2,1.4,4.4,2.6,6.8,3.6
	c5.2,2.2,10.8,3.3,16.5,3.4h0.4c14,0,25.6-6.8,26.1-7.1l1.4-0.8V80.2C89.2,75.5,85.4,71.7,80.7,71.6z"/>
<path d="M37.3,92.1"/>
<circle class="st0" cx="45.7" cy="18.6" r="11.3"/>
</svg>
